<?xml version="1.0" encoding="UTF-8"?> <!-- Generator: Adobe Illustrator 19.0.0, SVG Export Plug-In . SVG Version: 6.00 Build 0) --> <svg xmlns="http://www.w3.org/2000/svg" xmlns:xlink="http://www.w3.org/1999/xlink" id="Layer_1" x="0px" y="0px" viewBox="0 0 300 100" style="enable-background:new 0 0 300 100;" xml:space="preserve"> <style type="text/css"> .st0{fill:#010101;} .st1{fill:#EFEFEF;} .st2{fill:#F4BC19;} </style> <g> <g> <path class="st0" d="M464.8-211.1H173.2c-4.1,0-7.5,3.4-7.5,7.5c0,4.1,3.4,7.5,7.5,7.5h291.6c4.1,0,7.5-3.4,7.5-7.5 S468.9-211.1,464.8-211.1z"></path> </g> </g> <g> <g> <path class="st0" d="M369.2-158.1H268.8c-4.1,0-7.5,3.4-7.5,7.5c0,4.1,3.4,7.5,7.5,7.5h100.4c4.1,0,7.5-3.4,7.5-7.5 C376.7-154.7,373.3-158.1,369.2-158.1z"></path> </g> </g> <g> <g> <path class="st0" d="M464.8-252.2H247.3c-4.1,0-7.5,3.4-7.5,7.5c0,4.1,3.4,7.5,7.5,7.5h217.5c4.1,0,7.5-3.4,7.5-7.5 S468.9-252.2,464.8-252.2z"></path> </g> </g> <g> <g> <path class="st0" d="M212.4-252.2h-39.2c-4.1,0-7.5,3.4-7.5,7.5s3.4,7.5,7.5,7.5h39.2c4.1,0,7.5-3.4,7.5-7.5 C219.9-248.8,216.5-252.2,212.4-252.2z"></path> </g> </g> <g> <g> <path class="st0" d="M464.8-142.7c-25.7,0-46.6,20.9-46.6,46.6c0,25.7,20.9,46.6,46.6,46.6s46.6-20.9,46.6-46.6 C511.4-121.8,490.5-142.7,464.8-142.7z M464.8-64.4c-17.4,0-31.6-14.2-31.6-31.6c0-17.4,14.2-31.6,31.6-31.6 c17.4,0,31.6,14.2,31.6,31.6C496.4-78.6,482.2-64.4,464.8-64.4z"></path> </g> </g> <g id="XMLID_34_"> <g id="XMLID_35_"> <path id="XMLID_1_" class="st1" d="M208.8,20.9c0,28.5,0,57,0,85.6c-0.2,0.4-0.4,0.8-0.6,1.1c-1,1.6-2.4,2.6-4.3,2.6 c-1.6,0-3.2,0-4.8,0c-0.3,0-0.6,0.1-1.1,0.1c0.2,0.5,0.4,0.9,0.6,1.3c0.7,1.4,1.4,2.8,2,4.3c0.4,1,0.4,2-0.3,2.9 c-0.7,0.8-1.5,1.1-2.6,0.8c-1.6-0.4-3.3-0.5-4.9-0.7c-0.9,1.5-1.8,3-2.7,4.4c-0.3,0.5-0.8,0.8-1.2,1.3c-0.8,0-1.5,0-2.3,0 c-0.3-0.3-0.7-0.5-0.9-0.9c-1-1.9-1.9-3.9-2.8-5.8c-0.8-1.6-1.5-3.1-2.4-4.8c-0.2,0.4-0.4,0.6-0.5,0.9c-1.1,2.3-2.2,4.7-3.4,7 c-0.1,0.2-0.2,0.4-0.2,0.6c-0.4,1.1-1,2.2-1.9,3c-0.8,0-1.5,0-2.3,0c-0.4-0.4-0.9-0.7-1.2-1.1c-1-1.5-1.9-3.1-2.9-4.6 c-1.7,0.3-3.3,0.4-4.8,0.8c-1.1,0.2-1.9-0.1-2.6-0.9c-0.6-0.7-0.9-1.5-0.4-2.5c0.3-0.7,0.6-1.4,1-2.1c0.6-1.3,1.2-2.5,1.8-3.9 c-0.7,0-1.2,0-1.7,0c-26.4,0-52.9,0-79.3,0c-1.6,0-2.9-0.5-3.9-1.7c-0.5-0.6-0.9-1.4-1.3-2c0-28.5,0-57,0-85.6 c0.7-1.7,1.8-3,3.6-3.6c41.6,0,83.1,0,124.7,0c0.3,0.2,0.7,0.3,1,0.5C207.5,18.5,208.2,19.7,208.8,20.9z"></path> </g> </g> <g id="XMLID_20_"> <g id="XMLID_21_"> <path id="XMLID_22_" class="st2" d="M197.9,23.5h-75.1c-1.1,0-1.9,0.9-1.9,1.9c0,1.1,0.9,1.9,1.9,1.9h75.1c1.1,0,1.9-0.9,1.9-1.9 C199.8,24.4,198.9,23.5,197.9,23.5z"></path> </g> </g> <g id="XMLID_17_"> <g id="XMLID_18_"> <path id="XMLID_19_" class="st2" d="M216.3,20.2c-0.4-0.4-1-0.7-1.7-0.7c0,0,0,0,0,0c-3.9,0-7.1-3.1-7.3-7 c-0.1-1.3-1.1-2.3-2.4-2.3h-89.7c-1.3,0-2.3,1-2.4,2.3c-0.2,3.7-3.2,6.8-7,7c-1.3,0.1-2.3,1.1-2.3,2.4v50c0,1.3,1,2.3,2.3,2.4 c3.7,0.2,6.8,3.2,7,7c0.1,1.3,1.1,2.3,2.4,2.3h57.1c1.1,0,1.9-0.9,1.9-1.9c0-1.1-0.9-1.9-1.9-1.9h-55.8c-0.8-4.7-4.4-8.3-9.1-9.1 V23.2c4.7-0.8,8.3-4.4,9.1-9.1h87c0.8,4.8,4.7,8.5,9.5,9.2v32.9c0,1.1,0.9,1.9,1.9,1.9c1.1,0,1.9-0.9,1.9-1.9V21.9 C217,21.3,216.8,20.7,216.3,20.2z"></path> </g> </g> <g id="XMLID_4_"> <g id="XMLID_5_"> <path id="XMLID_6_" class="st2" d="M220.9,0.6H99.7c-3,0-5.4,2.4-5.4,5.4v81.8c0,3,2.4,5.4,5.4,5.4h81.2l-2.9,6 c-0.4,0.8-0.3,1.7,0.2,2.4c0.5,0.7,1.4,1,2.2,0.9l5.4-0.9l3,4.9c0.4,0.7,1.2,1.1,2,1.1c0,0,0.1,0,0.1,0c0.8,0,1.6-0.5,2-1.3 l5.2-10.9l5.2,10.9c0.4,0.8,1.1,1.3,2,1.3c0,0,0.1,0,0.1,0c0.8,0,1.5-0.4,2-1.1l3-4.9l5.4,0.9c0.8,0.1,1.7-0.2,2.2-0.9 c0.5-0.7,0.6-1.6,0.2-2.4l-2.9-6h5.8c3,0,5.4-2.4,5.4-5.4V6C226.3,3,223.9,0.6,220.9,0.6z M190.6,102l-2-3.3 c-0.5-0.8-1.4-1.2-2.3-1.1l-3.4,0.6l3.6-7.6c1.4,1.5,3.5,2.2,5.6,2c0.7-0.1,1.4,0.1,2,0.5c0.2,0.1,0.4,0.3,0.6,0.4L190.6,102z M198.5,90.5C198.5,90.5,198.5,90.5,198.5,90.5c-0.3,0-0.6,0-0.9,0c0,0,0,0,0,0c-0.5-0.1-0.9-0.2-1.3-0.5c-1.2-0.8-2.6-1.3-4-1.3 c-0.2,0-0.4,0-0.6,0c-1.3,0.1-2.5-0.6-3-1.8c-0.2-0.5-0.5-1-0.9-1.4c0,0,0,0,0-0.1c0,0,0,0-0.1-0.1c0,0,0-0.1-0.1-0.1 c-0.6-0.7-1.4-1.3-2.3-1.7c-1.2-0.5-1.9-1.8-1.8-3c0.2-1.6-0.3-3.3-1.2-4.6c-0.7-1-0.7-2.5,0-3.5c1-1.3,1.4-3,1.2-4.6 c-0.1-1.3,0.6-2.5,1.8-3c1.5-0.7,2.7-1.9,3.4-3.4c0.5-1.2,1.8-1.9,3-1.8c1.6,0.2,3.3-0.3,4.6-1.2c1-0.7,2.5-0.7,3.5,0 c1.3,1,3,1.4,4.6,1.2c1.3-0.1,2.5,0.6,3,1.8c0.7,1.5,1.9,2.7,3.4,3.4c1.2,0.5,1.9,1.8,1.8,3c-0.2,1.6,0.3,3.3,1.2,4.6 c0.7,1,0.7,2.5,0,3.5c-1,1.3-1.4,3-1.2,4.6c0.1,1.3-0.6,2.5-1.8,3c-0.9,0.4-1.7,1-2.3,1.7c0,0-0.1,0.1-0.1,0.1c0,0,0,0,0,0.1 c0,0,0,0-0.1,0.1c-0.4,0.4-0.7,0.9-0.9,1.4c-0.5,1.2-1.8,1.9-3,1.8c-1.6-0.2-3.3,0.3-4.6,1.2C199.4,90.3,198.9,90.5,198.5,90.5z M209.8,97.6c-0.9-0.1-1.8,0.3-2.3,1.1l-2,3.3l-4-8.5c0.2-0.1,0.4-0.2,0.6-0.4c0.6-0.4,1.3-0.6,2-0.5c2.1,0.2,4.1-0.6,5.6-2 l3.6,7.6L209.8,97.6z M222.4,87.8c0,0.8-0.7,1.5-1.5,1.5h-7.6l-1-2.1c0.1,0,0.1-0.1,0.2-0.1c2.7-1.2,4.3-4,4-6.9 c-0.1-0.7,0.1-1.4,0.5-2c1.7-2.4,1.7-5.6,0-8c-0.4-0.6-0.6-1.3-0.5-2c0.3-2.9-1.3-5.7-4-6.9c-0.7-0.3-1.2-0.8-1.5-1.5 c-1.2-2.7-4-4.3-6.9-4c-0.7,0.1-1.4-0.1-2-0.5c-2.4-1.7-5.6-1.7-8,0c-0.6,0.4-1.3,0.6-2,0.5c-2.9-0.3-5.7,1.3-6.9,4 c-0.3,0.7-0.8,1.2-1.5,1.5c-2.7,1.2-4.3,4-4,6.9c0.1,0.7-0.1,1.4-0.5,2c-1.7,2.4-1.7,5.6,0,8c0.4,0.6,0.6,1.3,0.5,2 c-0.3,2.9,1.3,5.7,4,6.9c0.1,0,0.1,0.1,0.2,0.1l-1,2.1h-83c-0.8,0-1.5-0.7-1.5-1.5V6c0-0.8,0.7-1.5,1.5-1.5h121.2 c0.8,0,1.5,0.7,1.5,1.5L222.4,87.8L222.4,87.8z"></path> </g> </g> </svg> 