<?xml version="1.0" encoding="UTF-8"?> <!-- Generator: Adobe Illustrator 19.0.0, SVG Export Plug-In . SVG Version: 6.00 Build 0) --> <svg xmlns="http://www.w3.org/2000/svg" xmlns:xlink="http://www.w3.org/1999/xlink" id="Layer_1" x="0px" y="0px" viewBox="0 0 300 100" style="enable-background:new 0 0 300 100;" xml:space="preserve"> <style type="text/css"> .st0{fill:#EFEFEF;} .st1{fill:#F5BC18;} </style> <g id="XMLID_1_"> <g id="XMLID_14_"> <path id="XMLID_15_" class="st0" d="M206.9,93.6c0,12.6,0,25.2,0,37.9c-55.4,0-110.7,0-166.1,0c-0.9-0.7-0.9-1.6-0.9-2.6 c0-4.1,0-8.2,0-12.3c0-2-0.5-3.7-2.1-5.1c-3.2-3-6.3-6.2-9.4-9.3c0-0.9,0-1.8,0-2.7c0.3-0.4,0.6-0.9,0.9-1.2 c2.5-2.6,4.9-5.2,7.4-7.8c3.8-3.9,7.6-7.8,11.4-11.8c3.9-4.1,7.9-8.1,11.8-12.2c3.8-3.9,7.6-7.9,11.4-11.8 c4.9-5.1,9.9-10.1,14.8-15.2c5.2-5.4,10.5-10.8,15.7-16.1c0.9,0,1.8,0,2.7,0c1.3,1.2,2.6,2.3,3.8,3.5c2.5,2.4,4.9,4.9,7.4,7.4 c5.7,5.6,11.4,11.1,17.1,16.7c1.1,1.1,2,1.3,3.4,0.7c5.5-2.4,11.1-4.8,16.6-7.1c1.4-0.6,2.8-1.3,4.3-1.7c2.3-0.7,3.4-0.2,4.3,1.9 c1.6,3.6,3.1,7.3,4.6,11c1.3,3.1,2.6,6.2,3.9,9.2c0.6,1.3,1.1,1.6,2.5,1.3c5.6-1.1,11.2-2.3,16.7-3.4c2.5-0.5,5-1.1,7.5-1.6 c2.3-0.5,3.6,0.3,4.1,2.4c1.1,5.2,2.1,10.4,3.2,15.6C205,84,206,88.8,206.9,93.6z"></path> </g> </g> <g id="XMLID_2_"> <g id="XMLID_95_"> <path id="XMLID_103_" class="st1" d="M153.4,109.1c-26.9,0-53.7,0-80.6,0c-3.4,0-3.8-0.4-3.8-3.8c0-4.5,0.1-8.9,0-13.4 c0-0.9-0.5-1.9-1.1-2.5c-3-3.1-6.2-6.1-9.3-9.1c-1.9-1.9-1.9-2.8,0-4.7C79.8,53.8,101,32,122.2,10.2c2.8-2.9,5.6-5.8,8.4-8.7 c2-2,2.9-2,4.9,0c9.2,9,18.3,17.9,27.4,26.9c1,1,1.8,1.2,3.2,0.6c7-3,14-6,21-8.9c2.7-1.1,3.5-0.8,4.6,1.9 c2.9,6.7,5.8,13.4,8.5,20.2c0.6,1.5,1.3,1.7,2.7,1.4c8-1.7,16.1-3.3,24.2-5c3.1-0.6,3.8-0.2,4.5,3c2,9.8,4,19.6,6,29.4 c0.3,1.5,0.4,3.1,0.4,4.7c0,9.7,0,19.4,0,29.1c0,0.7,0,1.5-0.1,2.2c-0.2,1.3-1,1.9-2.3,2c-0.6,0-1.2,0-1.8,0 C207,109.1,180.2,109.1,153.4,109.1z M155.1,71.6c12.4,0,24.8,0,37.2,0c12.8,0,25.5,0,38.3,0c2.5,0,2.5,0,2-2.4 c-1.6-8-3.3-16-4.8-24c-0.3-1.4-0.8-1.7-2.2-1.4c-34.1,6.9-68.3,13.8-102.4,20.8c-2.8,0.6-2.6,0.4-3.2-2.1c-0.4-1.6,0.1-2,1.6-2.3 c5.4-1,10.7-2.2,16.1-3.2c19.1-3.9,38.2-7.8,57.3-11.6c1.4-0.3,1.5-0.7,1-1.9c-2.4-5.5-4.7-11-7-16.5c-0.9-2.1-0.9-2.1-3.1-1.2 c-35.4,15-70.9,30-106.3,44.9c-0.5,0.2-1,0.6-1.4,0.9c0.5,0,1.1,0.1,1.6,0.1C104.8,71.6,129.9,71.6,155.1,71.6z M72.6,68.5 c0.4-0.1,0.6-0.3,0.9-0.4c28.1-11.9,56.1-23.7,84.2-35.6c2.1-0.9,2.1-0.9,0.4-2.5c-7.9-7.7-15.7-15.4-23.5-23 c-1.5-1.4-1.5-1.4-2.9,0C114.1,25,96.6,43.1,79,61.2c-2.1,2.2-4.2,4.4-6.3,6.6c-0.2,0.2-0.3,0.4-0.4,0.6 C72.4,68.4,72.5,68.5,72.6,68.5z M172.2,90.1c0,4.3,0,8.5,0,12.8c0,1.2,0.4,1.6,1.6,1.6c8.4,0,16.8,0,25.2,0 c1.2,0,1.6-0.5,1.5-1.6c0-8.4,0-16.7,0-25.1c0-1.3-0.4-1.7-1.7-1.7c-8.4,0-16.7,0-25.1,0c-1.3,0-1.7,0.5-1.6,1.7 C172.3,81.9,172.2,86,172.2,90.1z M139.3,90.1c0,4.3,0,8.5,0,12.8c0,1.2,0.4,1.6,1.6,1.6c8.4,0,16.8,0,25.2,0 c1.2,0,1.6-0.5,1.5-1.6c0-8.4,0-16.7,0-25.1c0-1.3-0.4-1.7-1.7-1.7c-8.4,0-16.7,0-25.1,0c-1.3,0-1.7,0.5-1.6,1.7 C139.3,81.9,139.3,86,139.3,90.1z M205.2,90.3c0,4.2,0,8.4,0,12.6c0,1,0.2,1.6,1.4,1.6c8.4,0,16.8,0,25.3,0c1.1,0,1.5-0.4,1.5-1.5 c0-8.4,0-16.8,0-25.3c0-1.2-0.5-1.6-1.6-1.6c-8.3,0-16.6,0-24.9,0c-1.3,0-1.7,0.5-1.7,1.7C205.2,82,205.2,86.1,205.2,90.3z M134.7,90.4c0-4.2,0-8.4,0-12.6c0-1-0.2-1.6-1.4-1.6c-8.4,0-16.8,0-25.3,0c-1.1,0-1.5,0.4-1.5,1.5c0,8.4,0,16.8,0,25.3 c0,1.2,0.5,1.6,1.6,1.6c8.3,0,16.6,0,24.9,0c1.3,0,1.7-0.5,1.7-1.7C134.7,98.6,134.7,94.5,134.7,90.4z M101.8,90.3 c0-4-0.1-8.1,0-12.1c0-1.6-0.4-2.1-2-2.1c-8.1,0.1-16.1,0.1-24.2,0c-1.5,0-2,0.4-2,1.9c0.1,8.2,0.1,16.3,0,24.5 c0,1.4,0.3,1.9,1.8,1.9c8.2-0.1,16.3-0.1,24.5,0c1.5,0,1.8-0.6,1.8-1.9C101.8,98.5,101.8,94.4,101.8,90.3z M69.1,78.5 C69.1,78.5,69.1,78.5,69.1,78.5c0-1.6,0-3.2,0-4.8c0-0.4-0.4-0.8-0.6-1.3c-0.3,0.2-0.7,0.4-1,0.7c-1.2,1.3-2.5,2.5-3.7,3.8 c-0.3,0.4-0.4,1.3-0.2,1.6c1.5,1.6,3.1,3.1,4.7,4.6c0.5,0.5,0.8,0.4,0.8-0.4C69.1,81.4,69.1,79.9,69.1,78.5z"></path> <path id="XMLID_102_" class="st1" d="M184.1,90.4c0-0.4,0-0.7,0-1.1c0-2.4,0-2.4,2.4-2.4c2.1,0,2.2,0,2.2,2.1c0,1,0,2.1,0,3.1 c0,1-0.3,1.6-1.4,1.6C183.4,93.7,184.2,93.9,184.1,90.4z"></path> <path id="XMLID_101_" class="st1" d="M155.8,90.4c0,0.1,0,0.2,0,0.4c0,3.2-0.1,3.2-3.3,3c-0.9-0.1-1.3-0.4-1.3-1.3 c0-1.3,0-2.7,0-4c0-1,0.4-1.5,1.4-1.4c0.2,0,0.5,0,0.7,0c2.5,0,2.5,0,2.5,2.4C155.8,89.7,155.8,90,155.8,90.4z"></path> <path id="XMLID_100_" class="st1" d="M217,90.3c0-0.4,0-0.7,0-1.1c0-2.3,0-2.3,2.3-2.3c2.2,0,2.3,0,2.3,2.2c0,0.5,0,1.1,0,1.6 c0,2.9-0.8,3.6-3.7,2.9c-0.3-0.1-0.8-0.6-0.8-0.9C217,91.9,217,91.1,217,90.3C217,90.3,217,90.3,217,90.3z"></path> <path id="XMLID_99_" class="st1" d="M122.8,90.4c0,0.3,0,0.6,0,0.9c0,2.4,0,2.4-2.4,2.4c-2.2,0-2.2,0-2.2-2.1c0-1,0-2.1,0-3.1 c0-1.2,0.5-1.6,1.6-1.6C122.8,86.8,122.8,86.8,122.8,90.4z"></path> <path id="XMLID_96_" class="st1" d="M97.5,90.5c0,5.7-4.1,9.8-9.8,9.8c-5.6,0-9.9-4.4-9.9-10c0-5.4,4.4-9.8,9.9-9.9 C93.4,80.3,97.6,84.6,97.5,90.5z M93,90.4c0-3.1-2.1-5.3-5-5.4c-3-0.1-5.4,2.3-5.4,5.2c0,3,2.2,5.4,5.2,5.4 C90.8,95.7,93,93.5,93,90.4z"></path> </g> </g> </svg> 