<?xml version="1.0" encoding="utf-8"?>
<!-- Generator: Adobe Illustrator 19.0.0, SVG Export Plug-In . SVG Version: 6.00 Build 0)  -->
<svg version="1.1" id="Layer_1" xmlns="http://www.w3.org/2000/svg" xmlns:xlink="http://www.w3.org/1999/xlink" x="0px" y="0px"
	 viewBox="0 0 300 100" style="enable-background:new 0 0 300 100;" xml:space="preserve">
<style type="text/css">
	.st0{fill:#EFEFEF;}
	.st1{fill:#F8BD15;}
</style>
<g id="XMLID_47_">
	<g id="XMLID_62_">
		<path id="XMLID_64_" class="st0" d="M91,10.3c28.3,0,56.5,0,84.8,0c1,0.5,1.5,1.4,1.4,2.5c0,1.3-0.2,2.6-0.3,4
			c-0.1,0.7-0.1,1.4-0.2,2.2c-0.2,1.7-0.3,3.4-0.5,5.2c-0.1,0.9-0.1,1.8-0.2,2.8c-0.2,1.7-0.4,3.3-0.5,5c-0.1,1.7-0.2,3.3-0.4,5
			c-0.1,0.7-0.1,1.5-0.2,2.2c-0.2,1.6-0.3,3.2-0.5,4.8c-0.1,0.6-0.1,1.3-0.2,1.9c0,0.2,0,0.5,0.1,0.8c0.3,0,0.6,0,0.8,0
			c3.7,0.1,7.3,0.1,11,0.2c1.5,0.1,3,0.3,4.4,0.6c2.7,0.6,5.2,1.6,7.6,2.9c1.8,1,3.6,2.2,5.1,3.6c1.5,1.4,2.8,2.9,4.1,4.4
			c2.5,3.1,4.2,6.7,5.2,10.7c0.3,1.4,0.5,2.8,0.8,4.2c0,2.4,0,4.8,0,7.2c0,0.1-0.1,0.3-0.1,0.4c-0.2,2-0.3,4.1-0.5,6.1
			c-0.2,2.2-0.5,4.4-0.7,6.6c-0.2,2.1-0.5,4.2-0.7,6.3c-0.3,2.5-0.6,5-0.9,7.5c-0.2,1.4-1.1,2.2-2.4,2.2c-3,0-5.9,0-8.9,0
			c-0.3,0-0.6,0-0.9,0c-0.1,0.4-0.2,0.8-0.3,1.1c-0.6,3.2-2,5.9-4.2,8.3c-2.1,2.3-4.7,4-7.7,4.9c-0.9,0.3-1.8,0.4-2.8,0.7
			c-1.7,0-3.4,0-5.1,0c-1.2-0.3-2.4-0.6-3.6-1c-3-1-5.3-2.9-7.3-5.3c-1.9-2.2-3-4.8-3.6-7.6c-0.2-1.1-0.2-1.1-1.4-1.1
			c-11.2,0-22.5,0-33.7,0c-0.2,0-0.4,0-0.5,0c-0.5,0-0.7,0.2-0.8,0.7c-0.3,2.1-1.1,4.1-2.2,6c-1.7,2.8-4,4.9-6.8,6.5
			c-1.7,1-3.6,1.4-5.5,1.8c-1.7,0-3.4,0-5.1,0c-0.1,0-0.2-0.1-0.2-0.1c-1.5-0.2-3-0.6-4.4-1.3c-2.6-1.2-4.8-2.8-6.5-5.1
			c-1-1.2-1.9-2.5-2.4-4c-0.5-1.5-1-2.9-1.5-4.6c-0.2,0-0.5,0-0.8,0c-3,0-5.9,0-8.9,0c-1.3,0-2.6-1.1-2.4-2.5
			c0.1-0.6,0.1-1.3,0.2-1.9c0.2-1.8,0.3-3.6,0.5-5.3c0.2-2.4,0.5-4.8,0.7-7.2c0.2-1.9,0.3-3.7,0.5-5.6c0.2-2.4,0.5-4.8,0.7-7.1
			c0.2-2.2,0.4-4.3,0.5-6.5c0.1-0.7,0.1-1.4,0.2-2.1c0.2-1.4,0.3-2.8,0.5-4.4c-0.4,0-0.7,0-1,0c-2,0-4.1,0-6.1,0
			c-0.4,0-0.9-0.1-1.3-0.2c-1.2-0.4-1.7-1.7-1.5-2.6c0.3-1.3,1.2-2,2.3-2c2.4,0.1,4.7,0,7.1,0c0.3,0,0.6,0,0.9,0
			c0.1-0.1,0.1-0.2,0.1-0.2c0.1-1.5,0.3-3.1,0.4-4.6c0.1-0.7,0.1-1.5,0.2-2.2c0.2-1.4,0.4-2.9,0.5-4.3c0.1-1.6,0.2-3.1,0.4-4.7
			c0.2-2.1,0.5-4.1,0.7-6.2c0.2-1.8,0.4-3.6,0.5-5.3c0-0.3,0-0.7,0-1.1c-0.5,0-0.9,0-1.2,0c-8.4,0-16.8,0-25.3,0
			c-1.2,0-2.1-0.4-2.7-1.5c0-0.6,0-1.3,0-1.9c0.4-1.1,1.3-1.5,2.5-1.5c8.7,0,17.3,0,26,0c0.4,0,0.7,0,1.1-0.1
			c0.1-1.1,0.3-2.2,0.4-3.2c0.1-1.5,0.2-3,0.4-4.6c0.1-0.7,0.1-1.4,0.2-2.1c0.2-1.7,0.3-3.4,0.5-5.1C89.6,12.2,89.6,10.9,91,10.3z"
			/>
		<path id="XMLID_63_" class="st0" d="M74.4,51.4c-1.9,0-3.8,0-5.7,0c-1.1,0-2-0.8-2.2-2c-0.2-1,0.4-2.1,1.3-2.5
			c0.3-0.1,0.6-0.2,0.8-0.2c3.8,0,7.6,0,11.4,0c1.2,0,2.1,0.9,2.2,2c0.1,1.2-0.5,2.2-1.6,2.6c-0.3,0.1-0.6,0.1-0.9,0.1
			C77.9,51.4,76.1,51.4,74.4,51.4C74.4,51.4,74.4,51.4,74.4,51.4z"/>
	</g>
</g>
<g id="XMLID_12_">
	<g id="XMLID_26_">
		<g id="XMLID_27_">
			<path id="XMLID_28_" class="st1" d="M202.4,38.7h-10l3-34.6c0-0.1,0-0.1,0-0.2c0,0,0,0,0,0c0,0,0,0,0,0c0-0.9-0.6-1.8-1.4-2.1
				c0,0,0,0,0,0c-0.1,0-0.1,0-0.2-0.1c0,0,0,0-0.1,0c0,0-0.1,0-0.1,0c0,0-0.1,0-0.1,0c0,0-0.1,0-0.1,0c0,0-0.1,0-0.1,0c0,0,0,0,0,0
				c0,0-0.1,0-0.1,0c0,0-0.1,0-0.1,0h0c0,0,0,0,0,0h-47.6c-1.3,0-2.3,1-2.3,2.3c0,1.3,1,2.3,2.3,2.3h45.1l-4.6,53.2c0,0,0,0,0,0
				l-1.2,13.4h-80.9l1.4-14h15.4c1.3,0,2.3-1,2.3-2.3s-1-2.3-2.3-2.3h-14.9l2.9-29.5h24.5c1.3,0,2.3-1,2.3-2.3c0-1.3-1-2.3-2.3-2.3
				H109l1.3-13.9h25.8c1.3,0,2.3-1,2.3-2.3c0-1.3-1-2.3-2.3-2.3h-27.9c0,0,0,0,0,0c-1.1,0-2,0.8-2.3,1.8c0,0,0,0,0,0
				c0,0.1,0,0.1,0,0.2c0,0,0,0,0,0.1c0,0,0,0,0,0L104.4,20H76.1c-1.3,0-2.3,1-2.3,2.3c0,1.3,1,2.3,2.3,2.3h27.8L101,54.2h-8.3
				c-1.3,0-2.3,1-2.3,2.3c0,1.3,1,2.3,2.3,2.3h7.9l-1.6,16c0,0,0,0,0,0l-2.4,24.8c0,0,0,0,0,0l0,0c0,0,0,0.1,0,0.1c0,0,0,0.1,0,0.1
				c0,0,0,0,0,0c0,0.1,0,0.1,0,0.2c0,0,0,0,0,0.1c0,0.1,0,0.1,0,0.2c0,0,0,0,0,0.1c0,0,0,0.1,0,0.1c0,0,0,0.1,0,0.1c0,0,0,0,0,0
				c0.1,0.3,0.3,0.7,0.6,0.9c0,0,0,0,0,0c0,0,0.1,0,0.1,0.1c0.2,0.1,0.3,0.3,0.5,0.4c0,0,0.1,0,0.1,0.1c0,0,0,0,0,0
				c0.1,0,0.1,0,0.2,0.1c0,0,0,0,0,0c0.1,0,0.1,0,0.2,0.1c0,0,0,0,0,0c0.1,0,0.1,0,0.2,0c0,0,0,0,0,0c0.1,0,0.2,0,0.2,0c0,0,0,0,0,0
				h10.4c1.1,8.7,8.6,15.4,17.6,15.4c9,0,16.4-6.7,17.6-15.4h37.3c1.1,8.7,8.6,15.4,17.6,15.4c9,0,16.4-6.7,17.6-15.4h10.4
				c0,0,0,0,0,0c0.1,0,0.2,0,0.2,0c0,0,0,0,0,0c0.1,0,0.1,0,0.2,0c0,0,0,0,0.1,0c0,0,0.1,0,0.1,0c0,0,0.1,0,0.1,0c0,0,0.1,0,0.1,0
				c0,0,0.1,0,0.1,0c0,0,0.1,0,0.1,0c0,0,0.1,0,0.1-0.1c0,0,0.1,0,0.1-0.1c0,0,0.1,0,0.1-0.1c0,0,0.1,0,0.1-0.1c0,0,0.1,0,0.1-0.1
				c0,0,0.1-0.1,0.1-0.1c0,0,0,0,0.1-0.1c0,0,0.1-0.1,0.1-0.1c0,0,0,0,0-0.1c0,0,0.1-0.1,0.1-0.1c0,0,0,0,0,0c0-0.1,0.1-0.1,0.1-0.2
				c0,0,0,0,0,0c0-0.1,0.1-0.1,0.1-0.2c0,0,0,0,0-0.1c0,0,0-0.1,0.1-0.1c0,0,0-0.1,0-0.1c0,0,0-0.1,0-0.1c0,0,0-0.1,0-0.1
				c0,0,0-0.1,0-0.1c0.1-0.8,1.9-15.4,2.7-24.9c0,0,0,0,0,0c0.2-2.7,0.4-5,0.4-6.4C232.7,52.2,219.1,38.7,202.4,38.7z M192,43.3h9.5
				l-1.2,14h-9.5L192,43.3z M126.9,113c-7.2,0-13.1-5.9-13.1-13.1c0-7.2,5.9-13.1,13.1-13.1s13.1,5.9,13.1,13.1
				C139.9,107.1,134.1,113,126.9,113z M199.3,113c-7.2,0-13.1-5.9-13.1-13.1c0-7.2,5.9-13.1,13.1-13.1c7.2,0,13.1,5.9,13.1,13.1
				C212.4,107.1,206.5,113,199.3,113z M225.2,97.6h-8.3c-1.1-8.7-8.6-15.4-17.6-15.4c-9,0-16.4,6.7-17.6,15.4h-37.3
				c-1.1-8.7-8.6-15.4-17.6-15.4s-16.4,6.7-17.6,15.4h-7.8l2-20.2h83.4v0c0,0,0,0,0,0c0.1,0,0.2,0,0.2,0c0,0,0,0,0,0
				c0.1,0,0.1,0,0.2,0c0,0,0.1,0,0.1,0c0,0,0.1,0,0.1,0c0,0,0.1,0,0.1,0c0,0,0.1,0,0.1,0c0,0,0.1,0,0.1,0c0,0,0.1,0,0.1,0
				c0,0,0.1,0,0.1-0.1c0,0,0.1,0,0.1-0.1c0,0,0.1,0,0.1-0.1c0,0,0.1,0,0.1-0.1c0,0,0.1,0,0.1-0.1c0,0,0.1-0.1,0.1-0.1
				c0,0,0,0,0.1-0.1c0,0,0.1-0.1,0.1-0.1c0,0,0,0,0.1-0.1c0,0,0.1-0.1,0.1-0.1c0,0,0-0.1,0.1-0.1c0,0,0-0.1,0.1-0.1c0,0,0-0.1,0-0.1
				c0,0,0-0.1,0.1-0.1c0,0,0-0.1,0-0.1c0,0,0-0.1,0-0.1c0,0,0-0.1,0-0.1c0,0,0-0.1,0-0.1c0,0,0-0.1,0-0.1c0,0,0-0.1,0-0.1
				c0,0,0-0.1,0-0.1c0,0,0,0,0,0l1.2-13.4h12c7.1,0,10.3,3.7,13.7,7.6c2.8,3.2,5.9,6.8,11.3,7.7C226.8,84.4,225.7,93.6,225.2,97.6z
				 M227.8,72.6c-3.5-0.7-5.6-3.1-8.2-6.1c-3.2-3.7-7.2-8.2-14.7-9.1l1.2-13.8c12.3,1.8,21.8,12.5,21.8,25.3
				C228,69.8,227.9,71,227.8,72.6z"/>
		</g>
	</g>
	<g id="XMLID_21_">
		<g id="XMLID_22_">
			<path id="XMLID_23_" class="st1" d="M126.9,91.4c-4.7,0-8.5,3.8-8.5,8.5c0,4.7,3.8,8.5,8.5,8.5c4.7,0,8.5-3.8,8.5-8.5
				C135.4,95.2,131.6,91.4,126.9,91.4z M126.9,103.8c-2.1,0-3.9-1.7-3.9-3.9c0-2.1,1.7-3.9,3.9-3.9s3.9,1.7,3.9,3.9
				C130.8,102.1,129,103.8,126.9,103.8z"/>
		</g>
	</g>
	<g id="XMLID_16_">
		<g id="XMLID_17_">
			<path id="XMLID_18_" class="st1" d="M199.3,91.4c-4.7,0-8.5,3.8-8.5,8.5c0,4.7,3.8,8.5,8.5,8.5c4.7,0,8.5-3.8,8.5-8.5
				C207.8,95.2,204,91.4,199.3,91.4z M199.3,103.8c-2.1,0-3.9-1.7-3.9-3.9c0-2.1,1.7-3.9,3.9-3.9c2.1,0,3.9,1.7,3.9,3.9
				C203.2,102.1,201.5,103.8,199.3,103.8z"/>
		</g>
	</g>
	<g id="XMLID_13_">
		<g id="XMLID_14_">
			<path id="XMLID_1_" class="st1" d="M95.8,38.7H84.5c-1.3,0-2.3,1-2.3,2.3c0,1.3,1,2.3,2.3,2.3h11.4c1.3,0,2.3-1,2.3-2.3
				C98.2,39.7,97.1,38.7,95.8,38.7z"/>
		</g>
	</g>
</g>
</svg>
