<?xml version="1.0" encoding="utf-8"?>
<!-- Generator: Adobe Illustrator 19.0.0, SVG Export Plug-In . SVG Version: 6.00 Build 0)  -->
<svg version="1.1" id="Layer_1" xmlns="http://www.w3.org/2000/svg" xmlns:xlink="http://www.w3.org/1999/xlink" x="0px" y="0px"
	 viewBox="0 0 300 100" style="enable-background:new 0 0 300 100;" xml:space="preserve">
<style type="text/css">
	.st0{fill:#EFEFEF;}
	.st1{fill:#F6BC17;}
</style>
<g id="XMLID_1_">
	<g id="XMLID_22_">
		<path id="XMLID_23_" class="st0" d="M199.8,25.9c0,22.6,0,45.3,0,67.9c-0.1,0.2-0.1,0.4-0.2,0.7c-0.3,1.6-0.8,3.2-1.6,4.6
			c-2.9,4.8-7.1,7.3-12.7,7.3c-12.2,0-24.5,0-36.7,0c-1,0-1,0-0.8,1c0.9,4.3,1.9,8.6,2.8,13c0.2,1,0.2,1,1.3,1c4.4,0,8.7,0,13.1,0
			c1.7,0,2.5,0.7,2.5,2.4c0,2.7,0,5.3,0,8c0,1.2-0.4,2.1-1.6,2.5c-22,0-43.9,0-65.9,0c-1.2-0.5-1.5-1.4-1.5-2.6c0-2.6,0-5.1,0-7.7
			c0-1.9,0.7-2.6,2.6-2.6c4.4,0,8.7,0,13.1,0c1.1,0,1.1,0,1.4-1.1c0.9-4.1,1.8-8.2,2.6-12.4c0.4-1.7,0.6-1.6-1.3-1.6
			c-12.1,0-24.2,0-36.3,0c-6.9,0-12.5-4.4-14-11c-0.1-0.5-0.2-1.1-0.3-1.6c0-23.2,0-46.3,0-69.5c0.1-0.3,0.1-0.5,0.2-0.8
			c1-5.8,5.2-10.2,10.9-11.5c0.5-0.1,1.1-0.2,1.6-0.3c36.1,0,72.2,0,108.2,0c0.2,0,0.4,0.1,0.5,0.1c6.8,1.1,11.5,6.3,12,13.1
			C199.6,25.3,199.7,25.6,199.8,25.9z M132.9,125.8c-5,0-10,0-15,0c-4.7,0-9.4,0-14.1,0c-1.1,0-1.1,0-1.1,1.1c0,0.6,0,1.3,0,1.9
			c0,1.3,0,1.3,1.3,1.3c19.2,0,38.4,0,57.6,0c0.2,0,0.4,0,0.6,0c0.6,0.1,0.8-0.2,0.8-0.8c0-0.8,0-1.6,0-2.4c0-1.1,0-1.1-1.1-1.1
			C152.2,125.8,142.5,125.8,132.9,125.8z"/>
	</g>
</g>
<g id="XMLID_46_">
	<path id="XMLID_72_" class="st1" d="M215.5,15.2h-0.2c0-8-6.2-14.2-14.2-14.2H96.2C88.2,1,82,7.2,82,15.2v66.2
		c0,8,6.2,14.2,14.2,14.2h38l-3.2,15h-14.6c-1.3,0-2.1,0.9-2.1,2.1v8.6c0,1.3,0.9,2.1,2.1,2.1h64.5c1.3,0,2.1-0.9,2.1-2.1v-8.6
		c0-1.3-0.9-2.1-2.1-2.1h-14.4l-3.2-15h38c7.7,0,14.2-6.2,14.2-14.2V15.2z M178.7,114.9v4.3h-60.2v-4.3H178.7z M135.3,110.6l3.2-15
		h20.2l3.2,15H135.3z M210.9,81.4c0,5.4-4.5,9.9-9.9,9.9H96.2c-5.4,0-9.9-4.5-9.9-9.9v-7.3h124.6V81.4z M210.9,69.8H86.3V15.2
		c0-5.4,4.5-9.9,9.9-9.9h104.9c5.4,0,9.9,4.5,9.9,9.9L210.9,69.8L210.9,69.8z"/>
	<circle id="XMLID_39_" class="st1" cx="148.6" cy="82.7" r="4.3"/>
	<rect id="XMLID_38_" x="180.9" y="13.9" class="st1" width="4.3" height="4.3"/>
	<rect id="XMLID_37_" x="189.5" y="13.9" class="st1" width="4.3" height="4.3"/>
	<rect id="XMLID_36_" x="198.1" y="13.9" class="st1" width="4.3" height="4.3"/>
	<rect id="XMLID_35_" x="189.5" y="22.5" class="st1" width="4.3" height="4.3"/>
	<rect id="XMLID_34_" x="198.1" y="22.5" class="st1" width="4.3" height="4.3"/>
	<rect id="XMLID_33_" x="159.4" y="56.9" class="st1" width="43" height="4.3"/>
	<rect id="XMLID_32_" x="165.8" y="48.3" class="st1" width="36.5" height="4.3"/>
	<rect id="XMLID_31_" x="172.3" y="39.7" class="st1" width="30.1" height="4.3"/>
	<rect id="XMLID_30_" x="198.1" y="31.1" class="st1" width="4.3" height="4.3"/>
	<path id="XMLID_48_" class="st1" d="M149.7,31.3c-0.6-0.4-1.5-0.4-2.1,0l-9.7,4.9v-3c0-1.3-0.9-2.1-2.1-2.1h-11
		c0.2-0.6,0.2-1.5,0.2-2.1c0-8.4-6.7-15-15-15s-15,6.7-15,15c0,7.5,5.6,13.8,12.9,14.8V59c0,1.3,0.9,2.1,2.1,2.1h25.8
		c1.3,0,2.1-0.9,2.1-2.1v-3l9.7,4.9c0.4,0.2,0.6,0.2,1.1,0.2c1.3,0,2.1-0.9,2.1-2.1V33.2C150.8,32.6,150.3,31.7,149.7,31.3z
		 M107.8,33.2v6.2c-5.8-1.1-9.7-6.9-8.4-12.7c1.1-4.9,5.4-8.6,10.5-8.6c6,0,10.7,4.7,10.7,10.7c0,0.6,0,1.5-0.2,2.1h-10.5
		C108.6,31.1,107.8,31.9,107.8,33.2z M118.5,35.4c-1.5,2.1-3.9,3.7-6.4,4.1v-4.1H118.5z M133.6,49.1l-6-3l6-3V49.1z M133.6,38.4
		l-11.8,5.8c-0.6,0.4-1.1,1.1-1.1,1.9s0.4,1.5,1.1,1.9l11.8,5.8v3h-21.5V43.8c4.9-0.6,9.2-3.9,11.4-8.4h10.1V38.4z M146.5,55.6
		l-8.6-4.3V41l8.6-4.3V55.6z"/>
</g>
</svg>
