<?xml version="1.0" encoding="UTF-8"?> <!-- Generator: Adobe Illustrator 19.0.0, SVG Export Plug-In . SVG Version: 6.00 Build 0) --> <svg xmlns="http://www.w3.org/2000/svg" xmlns:xlink="http://www.w3.org/1999/xlink" version="1.1" id="Layer_1" x="0px" y="0px" viewBox="-41 281 413 75" style="enable-background:new -41 281 413 75;" xml:space="preserve"> <g> <g> <g> <path d="M13.6,341.1c-0.5-0.1-0.9-0.3-1.4-0.4c-2.8-0.6-5.6-1.2-8.4-1.7c-0.1,0-0.1,0-0.3-0.1c0.3-0.2,0.6-0.3,0.8-0.4 c1.5-0.6,2.8-1.5,3.9-2.6c2.3-2.1,3.9-4.8,4.6-7.8c1.3-5.6-1.1-11.6-6-14.6c-5-2.9-11.1-2-15.1,2.4c-1.9,2.1-3,4.6-3.4,7.5 c-0.1,1.1-0.2,2.2,0,3.3c0,0.2,0,0.3,0,0.5c-2.3,1.6-4.7,3.2-7.1,4.8c-0.2-0.6-0.4-1.1-0.6-1.6c-1.1-2.9-1.3-5.9-1-8.9 c0-0.3,0-0.5,0.1-0.8c-6.9-2.9-13.8-5.8-20.7-8.7c0,0,0-0.1,0-0.1c7.7,0.5,15.5,1.1,23.1,1.6c1-1.3,1.9-2.6,2.9-4 c-3.8-5.2-7.7-10.4-11.6-15.6c0.1,0,0.1-0.1,0.1-0.1c0,0,0,0,0.1,0c0.1,0,0.1,0.1,0.2,0.1c5.9,3.6,11.8,7.2,17.7,10.9 c1.1-0.4,2.2-0.8,3.3-1.3c-0.1-7.1-0.2-14.2-0.3-21.3c0,0,0.1,0,0.1,0c2.6,6.9,5.1,13.8,7.7,20.7c2,0.2,3.8,0.6,5.7,1.4 c4.5-5.8,9-11.6,13.4-17.4c0,0,0.1,0,0.1,0.1c-1.1,3.6-2.3,7.1-3.5,10.7c-1.2,3.6-2.3,7.1-3.5,10.7c1.4,1.4,2.7,2.9,3.8,4.7 c6.6-1.6,13.3-3.3,19.9-4.9c0,0,0,0.1,0.1,0.1c-5.8,3.8-11.5,7.5-17.3,11.3c0.8,4.4,0.5,6.3,0.3,8.3c4.3,1.7,8.5,3.4,12.8,5.1 c0,0,0,0.1,0,0.1c-0.2,0-0.5,0.1-0.7,0.1c-2.5,0.1-4.9,0.2-7.4,0.3c-2,0.1-4,0.2-6,0.3c-0.3,0-0.6,0.1-0.7,0.4 c-1.3,2.7-3,5-5.3,6.9c0,0,0,0.1-0.1,0.1C14,341.1,13.8,341.1,13.6,341.1z"></path> </g> </g> <g> <path d="M40.8,318.6h-3.2v-3.7h15.3c12.8,0,12.8,17.8,0,17.8h-8.1v5.5h3.3v3.7H37.8v-3.7h3V318.6z M52.9,329.2 c7.4,0,7.4-10.6,0-10.6h-8.1v10.6H52.9z"></path> <path d="M68.1,326.2h-2.9v-3.4h6.2l0.5,2c1.3-1.9,3.5-2.4,5.7-2.4c1.9,0,3.5,0.6,4.8,1.6l-1.7,3.3c-1-0.7-2-1.1-3.4-1.1 c-3.5,0.1-5.3,1.7-5.3,5.4v7.1h2.9v3.4H65v-3.4h3.1V326.2z"></path> <path d="M90.8,322.8v15.7h2.8v3.4H84v-3.4h3v-12.3h-2.9v-3.4H90.8z M86.6,317.2c0-1.5,1.2-2.4,2.4-2.4s2.4,0.8,2.4,2.4 c0,1.5-1.2,2.4-2.4,2.4S86.6,318.8,86.6,317.2z"></path> <path d="M103.3,338.5h3v3.4h-9.9v-3.4h3.1v-12.3h-3v-3.4h6.4l0.3,2.6c1.9-2.1,3.5-2.9,5.9-2.9c5.7,0,8.4,3.3,8.4,9.1v6.9h3.1v3.4 h-9.5v-3.4h2.6v-6.9c0-3.9-1.2-5.5-4.9-5.5c-3.2,0-5.5,2.1-5.5,5.7V338.5z"></path> <path d="M128.9,317.4v5.5h5.6v3.3h-5.6v9.3c0,2,0.8,3.3,2.7,3.3c0.8,0,1.6-0.2,2.4-0.6l1.1,3.2c-1.3,0.6-2.4,0.8-3.7,0.9 c-4.1,0.1-6.3-2.4-6.3-6.7v-9.3h-3.7v-3.3h3.7v-5L128.9,317.4z"></path> <path d="M144.2,322.8v15.7h2.8v3.4h-9.6v-3.4h3v-12.3h-2.9v-3.4H144.2z M139.9,317.2c0-1.5,1.2-2.4,2.4-2.4c1.2,0,2.4,0.8,2.4,2.4 c0,1.5-1.2,2.4-2.4,2.4C141.1,319.6,139.9,318.8,139.9,317.2z"></path> <path d="M156.6,338.5h3v3.4h-9.9v-3.4h3.1v-12.3h-3v-3.4h6.4l0.3,2.6c1.9-2.1,3.5-2.9,5.9-2.9c5.7,0,8.4,3.3,8.4,9.1v6.9h3.1v3.4 h-9.5v-3.4h2.6v-6.9c0-3.9-1.2-5.5-4.9-5.5c-3.2,0-5.5,2.1-5.5,5.7V338.5z"></path> <path d="M179.8,344.8c0.1,3.5,3.1,4.9,6.3,4.9c3,0,6.2-1,6.2-4.1c0-2.6-2.6-4.3-6.1-4.3c-6.1,0-10.2-3.5-10.2-9.5 c0-6.3,5.2-9.5,10.2-9.5c1.6,0,3.9,0.4,5.2,1.3l2.1-2.5l2.7,2.2l-2.2,2.6c1.6,1.8,2.4,3.5,2.4,5.9c0,3.3-1.5,6.2-5,7.5 c3.8,1.2,4.9,3.8,4.9,6.2c0,5-4.9,7.7-10.1,7.7c-6.1,0-10.1-3.2-9.9-8.4H179.8z M186.2,338c3.6,0,6.3-2.6,6.3-6.1 c0-3.9-3-6.1-6.4-6.1c-3.2,0-6.4,2-6.4,6C179.8,335.8,182.7,338,186.2,338z"></path> <path d="M199.2,341.9v-3.7h3.1v-19.6H199v-3.7h6.2l15.8,19.4v-15.7h-3.2v-3.7h10.3v3.7h-3.1v23.2h-2.7l-16-19.4v15.7h3.2v3.7 H199.2z"></path> <path d="M248.9,339c-2,2.2-5.3,3.3-8.2,3.3c-6.2,0-10.2-4-10.2-10.1c0-5.7,4.2-9.9,10-9.9c6.1,0,10.3,3.8,9.5,11.5h-15.7 c0.3,2.9,2.9,4.9,6.4,4.9c2,0,4.4-0.7,5.6-2.1L248.9,339z M246.4,330.7c-0.2-3.2-2.5-4.9-5.7-4.9c-2.9,0-5.6,1.8-6.2,4.9H246.4z"></path> <path d="M254.2,326.1h-2.9v-3.3h9.2v3.3h-2.2L262,338l4.7-15.2h3.2l4.7,15.2l3.7-11.9h-2.5v-3.3h9.4v3.3h-2.8l-5.5,15.9h-4.4 l-2.6-7l-1.6-6.2l-1.7,6.2l-2.5,7h-4.4L254.2,326.1z"></path> <path d="M302.2,338.2v3.7h-10.8v-3.7h3.3v-7.4l-8.1-12.3H284v-3.7h10.4v3.7h-2.9l2.1,3.2l3.2,5.1l3.5-5.3l2-3.1h-2.9v-3.7h10.4 v3.7h-2.6l-8.3,12.3v7.4H302.2z"></path> <path d="M317.6,322.4c6,0,10,4.2,10,10c0,5.6-4,9.9-10,9.9c-5.9,0-9.9-4.2-9.9-9.9C307.6,326.6,311.8,322.4,317.6,322.4z M317.6,325.8c-3.7,0-6.2,2.7-6.2,6.6c0,3.5,2.4,6.3,6.1,6.3c3.7,0,6.2-2.7,6.2-6.3C323.8,328.5,321.2,325.8,317.6,325.8z"></path> <path d="M333.7,326.2h-2.9v-3.4h6.2l0.5,2c1.3-1.9,3.5-2.4,5.7-2.4c1.9,0,3.5,0.6,4.8,1.6l-1.7,3.3c-1-0.7-2-1.1-3.4-1.1 c-3.5,0.1-5.3,1.7-5.3,5.4v7.1h2.9v3.4h-9.9v-3.4h3.1V326.2z"></path> <path d="M348.8,318.3v-3.4h6.6v15.9l3.4-3l2.3-1.8l-2.3-0.1v-3h9.6v3.2H366l-5.9,4.8l5.7,7.7h3.2v3.4h-6.9v-2.1l-4.8-6.7l-1.9,1.5 v3.9h2.5v3.4h-9.3v-3.4h3v-20.1H348.8z"></path> </g> </g> </svg> 