<?xml version="1.0" encoding="UTF-8"?> <!-- Generator: Adobe Illustrator 24.2.0, SVG Export Plug-In . SVG Version: 6.00 Build 0) --> <svg xmlns="http://www.w3.org/2000/svg" xmlns:xlink="http://www.w3.org/1999/xlink" version="1.1" id="Layer_1" x="0px" y="0px" viewBox="0 0 285.1 87.6" style="enable-background:new 0 0 285.1 87.6;" xml:space="preserve"> <style type="text/css"> .st0{opacity:0.3;} </style> <g class="st0"> <g> <path d="M77,84.2c-0.7-0.1-1.3-0.4-2-0.6c-3.9-0.8-7.9-1.7-11.8-2.4c-0.1,0-0.1,0-0.4-0.1c0.4-0.3,0.8-0.4,1.1-0.6 c2.1-0.8,3.9-2.1,5.5-3.7c3.2-3,5.5-6.8,6.5-11c1.8-7.9-1.5-16.3-8.4-20.5c-7-4.1-15.6-2.8-21.2,3.4c-2.7,3-4.2,6.5-4.8,10.6 c-0.1,1.5-0.3,3.1,0,4.6c0,0.3,0,0.4,0,0.7c-3.2,2.3-6.6,4.5-10,6.8c-0.3-0.8-0.6-1.5-0.8-2.3c-1.5-4.1-1.8-8.3-1.4-12.5 c0-0.4,0-0.7,0.1-1.1c-9.7-4.1-19.4-8.2-29.1-12.2v-0.1c10.8,0.7,21.8,1.5,32.5,2.3c1.4-1.8,2.7-3.7,4.1-5.6 C31.5,32.4,26,25.1,20.5,17.8c0.1,0,0.1-0.1,0.1-0.1s0,0,0.1,0s0.1,0.1,0.3,0.1c8.3,5.1,16.6,10.1,24.9,15.3 c1.5-0.6,3.1-1.1,4.6-1.8c-0.1-10-0.3-20-0.4-30h0.1C54,11,57.5,20.7,61.1,30.4c2.8,0.3,5.3,0.8,8,2C75.5,24.2,81.8,16.1,88,7.9 c0,0,0.1,0,0.1,0.1c-1.5,5.1-3.2,10-4.9,15.1s-3.2,10-4.9,15.1c2,2,3.8,4.1,5.3,6.6c9.3-2.3,18.7-4.6,28-6.9c0,0,0,0.1,0.1,0.1 c-8.2,5.3-16.2,10.6-24.3,15.9c1.1,6.2,0.7,8.9,0.4,11.7c6.1,2.4,12,4.8,18,7.2v0.1c-0.3,0-0.7,0.1-1,0.1 c-3.5,0.1-6.9,0.3-10.4,0.4c-2.8,0.1-5.6,0.3-8.4,0.4c-0.4,0-0.8,0.1-1,0.6c-1.8,3.8-4.2,7-7.5,9.7c0,0,0,0.1-0.1,0.1 C77.6,84.2,77.3,84.2,77,84.2z"></path> </g> </g> <g> <path d="M96.6,27.1h-3.2v-3.7h15.3c12.8,0,12.8,17.8,0,17.8h-8.1v5.5h3.3v3.7H93.6v-3.7h3V27.1z M108.7,37.7c7.4,0,7.4-10.6,0-10.6 h-8.1v10.6H108.7z"></path> <path d="M123.9,34.7H121v-3.4h6.2l0.5,2c1.3-1.9,3.5-2.4,5.7-2.4c1.9,0,3.5,0.6,4.8,1.6l-1.7,3.3c-1-0.7-2-1.1-3.4-1.1 c-3.5,0.1-5.3,1.7-5.3,5.4v7.1h2.9v3.4h-9.9v-3.4h3.1V34.7z"></path> <path d="M146.6,31.3V47h2.8v3.4h-9.6V47h3V34.7h-2.9v-3.4L146.6,31.3L146.6,31.3z M142.4,25.7c0-1.5,1.2-2.4,2.4-2.4 c1.2,0,2.4,0.8,2.4,2.4c0,1.5-1.2,2.4-2.4,2.4C143.6,28.1,142.4,27.3,142.4,25.7z"></path> <path d="M159.1,47h3v3.4h-9.9V47h3.1V34.7h-3v-3.4h6.4l0.3,2.6c1.9-2.1,3.5-2.9,5.9-2.9c5.7,0,8.4,3.3,8.4,9.1V47h3.1v3.4h-9.5V47 h2.6v-6.9c0-3.9-1.2-5.5-4.9-5.5c-3.2,0-5.5,2.1-5.5,5.7V47z"></path> <path d="M184.7,25.9v5.5h5.6v3.3h-5.6V44c0,2,0.8,3.3,2.7,3.3c0.8,0,1.6-0.2,2.4-0.6l1.1,3.2c-1.3,0.6-2.4,0.8-3.7,0.9 c-4.1,0.1-6.3-2.4-6.3-6.7v-9.3h-3.7v-3.3h3.7v-5L184.7,25.9z"></path> <path d="M200,31.3V47h2.8v3.4h-9.6V47h3V34.7h-2.9v-3.4L200,31.3L200,31.3z M195.7,25.7c0-1.5,1.2-2.4,2.4-2.4s2.4,0.8,2.4,2.4 c0,1.5-1.2,2.4-2.4,2.4C196.9,28.1,195.7,27.3,195.7,25.7z"></path> <path d="M212.4,47h3v3.4h-9.9V47h3.1V34.7h-3v-3.4h6.4l0.3,2.6c1.9-2.1,3.5-2.9,5.9-2.9c5.7,0,8.4,3.3,8.4,9.1V47h3.1v3.4h-9.5V47 h2.6v-6.9c0-3.9-1.2-5.5-4.9-5.5c-3.2,0-5.5,2.1-5.5,5.7L212.4,47L212.4,47z"></path> <path d="M235.6,53.3c0.1,3.5,3.1,4.9,6.3,4.9c3,0,6.2-1,6.2-4.1c0-2.6-2.6-4.3-6.1-4.3c-6.1,0-10.2-3.5-10.2-9.5 c0-6.3,5.2-9.5,10.2-9.5c1.6,0,3.9,0.4,5.2,1.3l2.1-2.5l2.7,2.2l-2.2,2.6c1.6,1.8,2.4,3.5,2.4,5.9c0,3.3-1.5,6.2-5,7.5 c3.8,1.2,4.9,3.8,4.9,6.2c0,5-4.9,7.7-10.1,7.7c-6.1,0-10.1-3.2-9.9-8.4L235.6,53.3L235.6,53.3z M242,46.5c3.6,0,6.3-2.6,6.3-6.1 c0-3.9-3-6.1-6.4-6.1c-3.2,0-6.4,2-6.4,6C235.6,44.3,238.5,46.5,242,46.5z"></path> </g> <g> <path d="M113.8,83.5v-3.7h3.1V60.2h-3.3v-3.7h6.2l15.8,19.4V60.2h-3.2v-3.7h10.3v3.7h-3.1v23.2h-2.7l-16-19.4v15.7h3.2v3.7h-10.3 V83.5z"></path> <path d="M163.5,80.6c-2,2.2-5.3,3.3-8.2,3.3c-6.2,0-10.2-4-10.2-10.1c0-5.7,4.2-9.9,10-9.9c6.1,0,10.3,3.8,9.5,11.5h-15.7 c0.3,2.9,2.9,4.9,6.4,4.9c2,0,4.4-0.7,5.6-2.1L163.5,80.6z M161,72.3c-0.2-3.2-2.5-4.9-5.7-4.9c-2.9,0-5.6,1.8-6.2,4.9H161z"></path> <path d="M168.8,67.7h-2.9v-3.3h9.2v3.3h-2.2l3.7,11.9l4.7-15.2h3.2l4.7,15.2l3.7-11.9h-2.5v-3.3h9.4v3.3H197l-5.5,15.9h-4.4l-2.6-7 l-1.6-6.2l-1.7,6.2l-2.5,7h-4.4L168.8,67.7z"></path> <path d="M216.8,79.8v3.7H206v-3.7h3.3v-7.4l-8.1-12.3h-2.6v-3.7H209v3.7h-2.9l2.1,3.2l3.2,5.1l3.5-5.3l2-3.1H214v-3.7h10.4V60h-2.6 l-8.3,12.3v7.4L216.8,79.8L216.8,79.8z"></path> <path d="M232.2,64c6,0,10,4.2,10,10c0,5.6-4,9.9-10,9.9c-5.9,0-9.9-4.2-9.9-9.9C222.2,68.2,226.4,64,232.2,64z M232.2,67.4 c-3.7,0-6.2,2.7-6.2,6.6c0,3.5,2.4,6.3,6.1,6.3s6.2-2.7,6.2-6.3C238.4,70.1,235.8,67.4,232.2,67.4z"></path> <path d="M248.3,67.8h-2.9v-3.4h6.2l0.5,2c1.3-1.9,3.5-2.4,5.7-2.4c1.9,0,3.5,0.6,4.8,1.6l-1.7,3.3c-1-0.7-2-1.1-3.4-1.1 c-3.5,0.1-5.3,1.7-5.3,5.4v7.1h2.9v3.4h-9.9v-3.4h3.1L248.3,67.8L248.3,67.8z"></path> <path d="M263.4,59.9v-3.4h6.6v15.9l3.4-3l2.3-1.8l-2.3-0.1v-3h9.6v3.2h-2.4l-5.9,4.8l5.7,7.7h3.2v3.4h-6.9v-2.1l-4.8-6.7l-1.9,1.5 v3.9h2.5v3.4h-9.3v-3.4h3V60.1h-2.8V59.9z"></path> </g> </svg> 