<?xml version="1.0" encoding="utf-8"?>
<!-- Generator: Adobe Illustrator 19.0.0, SVG Export Plug-In . SVG Version: 6.00 Build 0)  -->
<svg version="1.1" id="Layer_1" xmlns="http://www.w3.org/2000/svg" xmlns:xlink="http://www.w3.org/1999/xlink" x="0px" y="0px"
	 viewBox="0 0 165 37.3" style="enable-background:new 0 0 165 37.3;" xml:space="preserve">
<style type="text/css">
	.st0{fill:#FFFFFF;}
	.st1{fill:#AEADAE;}
	.st2{opacity:0.9;fill:url(#XMLID_66_);}
	.st3{opacity:0.3;fill:#096AB3;}
</style>
<g id="XMLID_2_">
	<path id="XMLID_6_" class="st0" d="M42.1,0.6h7.8c3.9,0,6.9,2,6.9,6.2c0,3.5-2.2,5.6-5.6,5.6H48v5.1h-5.9V0.6z M48,8.2h0.6
		c1.1,0,2.2-0.2,2.2-1.5c0-1.3-1.3-1.4-2.3-1.4H48V8.2z"/>
	<path id="XMLID_10_" class="st0" d="M58.4,0.6h7.4c3.8,0,7,1.6,7,5.9c0,2.6-1,3.6-3.3,4.4V11c0.3,0.2,0.7,0.5,1,1l3.7,5.5h-7.1
		l-2.7-5.4h-0.1v5.4h-6V0.6z M64.4,8.1h0.4c1,0,2-0.2,2-1.4c0-1.3-0.9-1.5-2-1.5h-0.5V8.1z"/>
	<path id="XMLID_13_" class="st0" d="M75.4,0.6h6.1v16.9h-6.1V0.6z"/>
	<path id="XMLID_15_" class="st0" d="M84.3,0.6h5.9l5.5,9.4h0.2c-0.2-1.4-0.5-2.9-0.5-4.3V0.6h5.9v16.9h-5.9L90,8.6h-0.2
		c0.2,1.2,0.4,2.3,0.4,3.4v5.5h-5.9V0.6z"/>
	<path id="XMLID_17_" class="st0" d="M102.8,0.6h12.9v5.5l-3.4-0.2v11.6h-6.1V5.9l-3.4,0.2V0.6z"/>
	<path id="XMLID_19_" class="st0" d="M117.4,0.6h6.1v16.9h-6.1V0.6z"/>
	<path id="XMLID_21_" class="st0" d="M126.3,0.6h5.9l5.5,9.4h0.2c-0.2-1.4-0.5-2.9-0.5-4.3V0.6h5.9v16.9h-5.9L132,8.6h-0.2
		c0.2,1.2,0.4,2.3,0.4,3.4v5.5h-5.9V0.6z"/>
	<path id="XMLID_23_" class="st0" d="M163.8,7.6c0,2.8,0,5.1-2,7.2c-1.8,2-4.6,3-7.2,3c-5.2,0-9.3-3.2-9.3-8.6
		c0-5.5,4.1-8.8,9.4-8.8c2.9,0,7,1.5,8.3,4.3l-5.7,2.1c-0.5-0.9-1.3-1.3-2.3-1.3c-2.2,0-3.4,1.9-3.4,3.9c0,1.9,1.2,3.6,3.2,3.6
		c1,0,2.2-0.4,2.5-1.5h-2.8v-4H163.8z"/>
	<path id="XMLID_25_" class="st0" d="M42.1,18.9h6.3c5.7,0,10,2.5,10,8.7c0,5-3.5,8.2-8.5,8.2h-7.8V18.9z M48.3,30.7h0.4
		c2,0,3.6-0.9,3.6-3.2c0-2.4-1.4-3.4-3.6-3.4h-0.4V30.7z"/>
	<path id="XMLID_28_" class="st0" d="M60.7,18.9h6.1v16.9h-6.1V18.9z"/>
	<path id="XMLID_30_" class="st0" d="M87.5,25.8c0,2.8,0,5.1-2,7.2c-1.8,2-4.6,3-7.2,3c-5.2,0-9.3-3.2-9.3-8.6
		c0-5.5,4.1-8.8,9.4-8.8c2.9,0,7,1.5,8.3,4.3L80.9,25c-0.5-0.9-1.3-1.3-2.3-1.3c-2.2,0-3.4,1.9-3.4,3.9c0,1.9,1.2,3.6,3.2,3.6
		c1,0,2.2-0.4,2.5-1.5h-2.8v-4H87.5z"/>
	<path id="XMLID_32_" class="st0" d="M89.7,18.9h6.1v16.9h-6.1V18.9z"/>
	<path id="XMLID_34_" class="st0" d="M97.5,18.9h12.9v5.5l-3.4-0.2v11.6h-6.1V24.2l-3.4,0.2V18.9z"/>
	<path id="XMLID_36_" class="st0" d="M115.2,35.8h-6.5l5.9-16.9h6.8l6,16.9h-6.5l-0.6-2.1h-4.6L115.2,35.8z M119.3,29.6l-0.7-3
		c-0.2-0.7-0.3-1.5-0.4-2.2H118l-1.1,5.2H119.3z"/>
	<path id="XMLID_39_" class="st0" d="M128.7,18.9h6.1v11.5h5.2v5.4h-11.3V18.9z"/>
</g>
<path id="XMLID_5_" class="st1" d="M12.7,4.5h-1.8c0,0,0,0,0,0H2.2C1.6,4.5,1,5.1,1,5.8v29C1,35.5,1.6,36,2.2,36h8.6c0,0,0,0,0,0
	h4.6c9.2,0,15.8-5.9,15.8-15.3C31.3,9.2,23.2,4.5,12.7,4.5z"/>
<linearGradient id="XMLID_66_" gradientUnits="userSpaceOnUse" x1="-3.8215" y1="30.4785" x2="24.9176" y2="1.7395">
	<stop  offset="0.2611" style="stop-color:#BCBEC0"/>
	<stop  offset="0.7685" style="stop-color:#FFFFFF"/>
	<stop  offset="1" style="stop-color:#FFFFFF"/>
</linearGradient>
<path id="XMLID_3_" class="st2" d="M17.1,1h-1.9h-2H12H8.1H2.2C1.6,1,1,1.6,1,2.2v32.6C1,35.5,1.6,36,2.2,36H12
	c0.7,0,1.2-0.6,1.2-1.2v-9.3h6.5c7.1,0,11.6-4.5,11.6-11.6C31.3,5.2,25.3,1,17.1,1z"/>
<path id="XMLID_7_" class="st3" d="M19.8,25.5h-6.5V28h6.2c6.9,0,11.3-4.2,11.6-11C29.9,22.3,25.8,25.5,19.8,25.5z"/>
</svg>
